<svg width="28" height="28" viewBox="0 0 28 28" fill="none" xmlns="http://www.w3.org/2000/svg">
<path d="M14.0001 0.666672C6.64808 0.666672 0.666748 6.64801 0.666748 14C0.666748 21.352 6.64808 27.3333 14.0001 27.3333C21.3521 27.3333 27.3334 21.352 27.3334 14C27.3334 6.64801 21.3521 0.666672 14.0001 0.666672ZM15.3334 22H12.6667V19.3333H15.3334V22ZM16.6347 15.4867C16.3734 15.6973 16.1214 15.8987 15.9214 16.0987C15.3774 16.6413 15.3347 17.1347 15.3334 17.156V17.3333H12.6667V17.1107C12.6667 16.9533 12.7054 15.5413 14.0347 14.212C14.2947 13.952 14.6174 13.688 14.9561 13.4133C15.9347 12.62 16.5774 12.0413 16.5774 11.244C16.5619 10.5704 16.2834 9.92967 15.8015 9.45883C15.3196 8.98799 14.6725 8.72446 13.9988 8.72463C13.325 8.72481 12.6781 8.98867 12.1964 9.45976C11.7147 9.93085 11.4366 10.5718 11.4214 11.2453H8.75475C8.75475 8.35334 11.1081 6.00001 14.0001 6.00001C16.8921 6.00001 19.2454 8.35334 19.2454 11.2453C19.2454 13.3747 17.6734 14.6453 16.6347 15.4867V15.4867Z" fill="#017EFA"/>
</svg>
