<svg width="50" height="54" viewBox="0 0 50 54" fill="none" xmlns="http://www.w3.org/2000/svg">
<path d="M40.7814 0.351562H4.21875V44.6483H40.7814V0.351562Z" fill="white"/>
<path d="M40.4297 0.703125V44.2969H4.57031V0.703125H40.4297ZM41.1328 0H3.86719V45H41.1328V0Z" fill="#CCCCCC"/>
<path d="M9.12507 0H3.86719V44.9999H9.12507V0Z" fill="#6B6B6B"/>
<path d="M26.3672 0V19.729L19.9337 14.3198L13.5 19.8366V0H26.3672Z" fill="#003F8A"/>
<path d="M13.5 0V19.8366L19.9337 14.3198V0H13.5Z" fill="#2488FF"/>
<path d="M22.4243 39C22.4243 45.9346 28.0655 51.5758 35.0001 51.5758V40.1966H25.4548V37.7724H33.788V29.4546H35.0001V26.4243C28.0655 26.4243 22.4243 32.0655 22.4243 39Z" fill="#9BFBFF"/>
<path d="M36.2121 29.4546V40.1966H35V51.5758C41.9345 51.5758 47.5758 45.9346 47.5758 39C47.5758 32.0655 41.9345 26.4243 35 26.4243V29.4546H36.2121Z" fill="#46F8FF"/>
<path d="M35 24V26.4242C41.9345 26.4242 47.5758 32.0655 47.5758 39C47.5758 45.9345 41.9345 51.5758 35 51.5758V54C43.2709 54 50 47.2709 50 39C50 30.7291 43.2709 24 35 24Z" fill="#005ECE"/>
<path d="M35 51.5758C28.0655 51.5758 22.4242 45.9345 22.4242 39C22.4242 32.0655 28.0655 26.4242 35 26.4242V24C26.7291 24 20 30.7291 20 39C20 47.2709 26.7291 54 35 54V51.5758Z" fill="#2488FF"/>
<path d="M36.2122 29.4546H33.788V37.7724H25.4548V40.1966H36.2122V29.4546Z" fill="#003F8A"/>
</svg>
